<svg xmlns="http://www.w3.org/2000/svg" width="150" height="150" viewBox="0 0 150 150">
  <g id="user-icon" transform="translate(-544 -146)">
    <rect id="사각형_37" data-name="사각형 37" width="150" height="150" transform="translate(544 146)" fill="#d9ebd9"/>
    <path id="빼기_1" data-name="빼기 1" d="M1892,1324a94.6,94.6,0,0,1-28.767-4.382,79.562,79.562,0,0,1-23.618-11.97,59.951,59.951,0,0,1-16.169-17.794,46.255,46.255,0,0,1-6.42-21.854h149.95a46.254,46.254,0,0,1-6.42,21.854,59.956,59.956,0,0,1-16.169,17.794,79.566,79.566,0,0,1-23.618,11.97A94.605,94.605,0,0,1,1892,1324Z" transform="translate(2510.975 1564) rotate(180)" fill="#8daa8d"/>
    <circle id="타원_5" data-name="타원 5" cx="31" cy="31" r="31" transform="translate(589.5 176)" fill="#8daa8d"/>
  </g>
</svg>
