<svg xmlns="http://www.w3.org/2000/svg" width="40" height="56" viewBox="0 0 40 56">
  <g id="video" transform="translate(-280 -40)">
    <g id="사각형_24" data-name="사각형 24" transform="translate(280 40)" fill="#d9ebd9" stroke="#707070" stroke-linejoin="round" stroke-width="0.3">
      <rect width="40" height="56" stroke="none"/>
      <rect x="0.15" y="0.15" width="39.7" height="55.7" fill="none"/>
    </g>
    <rect id="사각형_25" data-name="사각형 25" width="40" height="2" transform="translate(280 94)" fill="#58c658"/>
    <g id="사각형_26" data-name="사각형 26" transform="translate(285 58)" fill="#fff" stroke="#707070" stroke-linejoin="round" stroke-width="0.7">
      <rect width="30" height="21" stroke="none"/>
      <rect x="0.35" y="0.35" width="29.3" height="20.3" fill="none"/>
    </g>
    <g id="사각형_27" data-name="사각형 27" transform="translate(285 55)" fill="#1f6b1f" stroke="#707070" stroke-linejoin="round" stroke-width="1">
      <rect width="30" height="4" stroke="none"/>
      <rect x="0.5" y="0.5" width="29" height="3" fill="none"/>
    </g>
    <path id="다각형_1" data-name="다각형 1" d="M6.136,1.481a1,1,0,0,1,1.728,0L13.123,10.5a1,1,0,0,1-.864,1.5H1.741a1,1,0,0,1-.864-1.5Z" transform="translate(307 61.5) rotate(90)" fill="#1f6b1f"/>
  </g>
</svg>
