<svg xmlns="http://www.w3.org/2000/svg" viewBox="0 0 999.33 514.26"><defs><style>.cls-1{fill:#1db21d;}.cls-2{fill:#fff;}</style></defs><g id="Layer_2" data-name="Layer 2"><g id="logo"><path class="cls-1" d="M999.33,318.78c0-108-87.52-195.49-195.49-195.49a194.59,194.59,0,0,0-99.17,27C664.11,61.62,574.62,0,470.73,0,338.92,0,230.3,99.18,215.37,227a150.88,150.88,0,1,0-64.5,287.29H804.05C911.92,514.15,999.33,426.67,999.33,318.78Z"/><rect class="cls-2" x="332.33" y="182" width="321" height="75" rx="11.23"/><rect class="cls-2" x="332.33" y="284" width="321" height="75" rx="11.23"/><rect class="cls-2" x="332.33" y="386" width="321" height="75" rx="11.23"/><path class="cls-1" d="M608.83,347.5a26,26,0,1,1,26-26A26,26,0,0,1,608.83,347.5Zm0-41a15,15,0,1,0,15,15A15,15,0,0,0,608.83,306.5Z"/></g></g></svg>